<?xml version="1.0" encoding="utf-8"?>
<!-- Generator: Adobe Illustrator 24.3.0, SVG Export Plug-In . SVG Version: 6.00 Build 0)  -->
<svg version="1.1" id="Layer_1" xmlns="http://www.w3.org/2000/svg" xmlns:xlink="http://www.w3.org/1999/xlink" x="0px" y="0px"
	 viewBox="0 0 1024 1024" style="enable-background:new 0 0 1024 1024;" xml:space="preserve">
<style type="text/css">
	.st0{fill:url(#SVGID_1_);}
	.st1{fill:url(#SVGID_2_);}
	.st2{fill:url(#SVGID_3_);}
	.st3{fill:url(#SVGID_4_);}
</style>
<g>
	
		<linearGradient id="SVGID_1_" gradientUnits="userSpaceOnUse" x1="65.839" y1="885.7032" x2="419.5264" y2="532.0159" gradientTransform="matrix(1 0 0 -1 0 1024)">
		<stop  offset="0" style="stop-color:#00B5FA"/>
		<stop  offset="1" style="stop-color:#0080EA"/>
	</linearGradient>
	<path class="st0" d="M428.3,94.8v400.1H16.5V192.4c0,0-3.9-42.5,48.3-48.3S428.3,94.8,428.3,94.8z"/>
	
		<linearGradient id="SVGID_2_" gradientUnits="userSpaceOnUse" x1="38.6792" y1="517.0669" x2="444.6092" y2="111.137" gradientTransform="matrix(1 0 0 -1 0 1024)">
		<stop  offset="0" style="stop-color:#006DEC"/>
		<stop  offset="1" style="stop-color:#0026C7"/>
	</linearGradient>
	<path class="st1" d="M428.3,929.2V529.1H16.5v302.5c0,0-3.9,42.5,48.3,48.3C117.1,885.7,428.3,929.2,428.3,929.2z"/>
	
		<linearGradient id="SVGID_3_" gradientUnits="userSpaceOnUse" x1="508.6916" y1="979.3493" x2="983.2466" y2="504.7943" gradientTransform="matrix(1 0 0 -1 0 1024)">
		<stop  offset="0" style="stop-color:#00E6FD"/>
		<stop  offset="1" style="stop-color:#00C1F0"/>
	</linearGradient>
	<path class="st2" d="M462.4,90.9v404h545.1V63.9c0,0-3.9-51.2-59.9-43.5C891.6,28.1,462.4,90.9,462.4,90.9z"/>
	
		<linearGradient id="SVGID_4_" gradientUnits="userSpaceOnUse" x1="497.6998" y1="530.1975" x2="994.2383" y2="33.6589" gradientTransform="matrix(1 0 0 -1 0 1024)">
		<stop  offset="0" style="stop-color:#01D6F9"/>
		<stop  offset="1" style="stop-color:#0084E7"/>
	</linearGradient>
	<path class="st3" d="M462.4,933.1v-404h545.1v431.1c0,0-3.9,51.2-59.9,43.5C891.6,995.9,462.4,933.1,462.4,933.1z"/>
</g>
</svg>
