<?xml version="1.0" encoding="utf-8"?>
<!-- Generator: Adobe Illustrator 24.3.0, SVG Export Plug-In . SVG Version: 6.00 Build 0)  -->
<svg version="1.1" id="Layer_1" xmlns="http://www.w3.org/2000/svg" xmlns:xlink="http://www.w3.org/1999/xlink" x="0px" y="0px"
	 viewBox="0 0 1024 1024" style="enable-background:new 0 0 1024 1024;" xml:space="preserve">
<style type="text/css">
	.st0{fill:url(#SVGID_1_);}
	.st1{fill:url(#SVGID_2_);}
	.st2{fill:url(#SVGID_3_);}
	.st3{fill:url(#SVGID_4_);}
</style>
<g>
	<linearGradient id="SVGID_1_" gradientUnits="userSpaceOnUse" x1="65.8429" y1="138.293" x2="419.5303" y2="491.9802">
		<stop  offset="0" style="stop-color:#03A5F0"/>
		<stop  offset="1" style="stop-color:#1389D0"/>
	</linearGradient>
	<path class="st0" d="M428.3,94.8v400.1H16.5V192.4c0,0-3.9-42.5,48.3-48.3S428.3,94.8,428.3,94.8z"/>
	<linearGradient id="SVGID_2_" gradientUnits="userSpaceOnUse" x1="38.1069" y1="506.368" x2="444.057" y2="912.318">
		<stop  offset="0" style="stop-color:#0462B6"/>
		<stop  offset="1" style="stop-color:#00479D"/>
	</linearGradient>
	<path class="st1" d="M428.3,929.2V529.1H16.5v302.5c0,0-3.9,42.5,48.3,48.3C117.1,885.7,428.3,929.2,428.3,929.2z"/>
	<linearGradient id="SVGID_3_" gradientUnits="userSpaceOnUse" x1="470.5873" y1="69.7023" x2="1012.4371" y2="478.0154">
		<stop  offset="0" style="stop-color:#00D8FD"/>
		<stop  offset="1" style="stop-color:#0AB9EE"/>
	</linearGradient>
	<path class="st2" d="M462.4,90.9v404h545.1v-431c0,0-3.9-51.2-59.9-43.5S462.4,90.9,462.4,90.9z"/>
	<linearGradient id="SVGID_4_" gradientUnits="userSpaceOnUse" x1="497.675" y1="493.825" x2="994.2209" y2="990.371">
		<stop  offset="0" style="stop-color:#04A8F3"/>
		<stop  offset="1" style="stop-color:#0081CE"/>
	</linearGradient>
	<path class="st3" d="M462.4,933.1v-404h545.1v431.1c0,0-3.9,51.2-59.9,43.5C891.6,995.9,462.4,933.1,462.4,933.1z"/>
</g>
</svg>
