<svg xmlns="http://www.w3.org/2000/svg" viewBox="0 0 318.91 271.77"><defs><style>.cls-1{fill:#f2f2f2;}.cls-2{fill:#e5e5e5;}.cls-3{fill:#0063b1;}.cls-4{fill:#383838;}.cls-5{fill:#fce100;}.cls-6{fill:#fff100;}.cls-7{fill:#0278d9;}.cls-8{fill:#31d2f7;}.cls-9{fill:#757575;}.cls-10{fill:#ccc;}.cls-11{fill:#0037da;}.cls-12{fill:#0046ff;}.cls-13{fill:#da3b01;}.cls-14{fill:#f03a17;}.cls-15{fill:#3a96dd;}.cls-16{fill:#ef6950;}</style></defs><title>Asset 1</title><g id="Layer_2" data-name="Layer 2"><g id="Layer_1-2" data-name="Layer 1"><polygon class="cls-1" points="19.29 103.52 23.77 102.4 19.29 101.28 18.17 96.8 17.05 101.28 12.57 102.4 17.05 103.52 18.17 108 19.29 103.52"/><polygon class="cls-1" points="267.57 119.58 272.05 118.46 267.57 117.34 266.45 112.86 265.33 117.34 260.85 118.46 265.33 119.58 266.45 124.06 267.57 119.58"/><polygon class="cls-2" points="39.23 8.2 43.71 7.08 39.23 5.96 38.11 1.48 36.99 5.96 32.51 7.08 36.99 8.2 38.11 12.68 39.23 8.2"/><polygon class="cls-1" points="7.84 188.14 11.2 182.54 5.6 185.9 0 182.54 3.36 188.14 0 193.74 5.6 190.38 11.2 193.74 7.84 188.14"/><polygon class="cls-2" points="293.97 7.47 297.33 1.87 291.73 5.23 286.13 1.87 289.49 7.47 286.13 13.07 291.73 9.71 297.33 13.07 293.97 7.47"/><polygon class="cls-1" points="274.14 184.94 275.82 182.14 273.02 183.82 270.22 182.14 271.9 184.94 270.22 187.74 273.02 186.06 275.82 187.74 274.14 184.94"/><circle class="cls-2" cx="81.61" cy="164.29" r="2.8"/><circle class="cls-1" cx="106.26" cy="15.88" r="2.8"/><circle class="cls-2" cx="255.62" cy="225.85" r="2.8"/><circle class="cls-2" cx="22.59" cy="224.45" r="1.4"/><circle class="cls-2" cx="317.51" cy="141.36" r="1.4"/><circle class="cls-1" cx="222.79" cy="17.28" r="1.4"/><circle class="cls-2" cx="126.41" cy="85.88" r="1.4"/><circle class="cls-1" cx="176.5" cy="97.43" r="2.8"/><rect class="cls-3" x="51.65" y="254.62" width="203.64" height="17.15" rx="8.57" ry="8.57"/><path class="cls-4" d="M247.43,58.3a147.19,147.19,0,0,0-62.08-30.08,16.45,16.45,0,0,0-10.79-11,21.9,21.9,0,0,0-42.79,0A16.44,16.44,0,0,0,121.07,28,147.22,147.22,0,0,0,57.79,58.3q-.34.27-.66.57a10.6,10.6,0,0,0-.37,15l.62.64a10.66,10.66,0,0,0,14.51.55A125.29,125.29,0,0,1,119.5,50.8L122,53.24a45.18,45.18,0,0,0,62.39,0L186.6,51a125.3,125.3,0,0,1,46.73,24,10.66,10.66,0,0,0,14.51-.55l.62-.64c.2-.21.39-.43.58-.66A10.6,10.6,0,0,0,247.43,58.3Z"/><path class="cls-5" d="M169.6,21.92a16.44,16.44,0,0,0-32.87,0v0a11,11,0,0,0-10.95,11V49.31a39.72,39.72,0,0,0,54.77,0V32.88A11,11,0,0,0,169.6,21.92Z"/><circle class="cls-6" cx="153.17" cy="35.61" r="13.69"/><circle class="cls-6" cx="74.19" cy="58.89" r="4.79"/><circle class="cls-6" cx="90.62" cy="49.31" r="4.79"/><circle class="cls-6" cx="108.42" cy="42.46" r="4.79"/><circle class="cls-6" cx="200.15" cy="42.46" r="4.79"/><circle class="cls-6" cx="216.59" cy="50.68" r="4.79"/><circle class="cls-6" cx="231.65" cy="60.26" r="4.79"/><path class="cls-7" d="M216.38,180A87.57,87.57,0,0,0,69.65,263.9H239.18A87.51,87.51,0,0,0,216.38,180Z"/><path class="cls-8" d="M179.55,220.73c12.89,13.2,23.24,26.86,30.32,39.39l-3.78,3.78H218c-.46-.94-.83-1.85-1.34-2.8L241.76,236c-.16-2.33-.43-4.65-.77-7l-27.13,27.13a207.52,207.52,0,0,0-30.43-39.28l34.79-34.79c-.63-.67-1.19-1.38-1.84-2s-1.37-1.21-2-1.84L179.56,213c-12.24-12-26-22.7-39.28-30.43l27.13-27.13c-2.32-.35-4.64-.62-7-.78l-25.12,25.12c-11.42-6-22.25-9.53-31.24-9.4A88,88,0,0,0,92.46,180c7-7,21.52-5,38.81,3.8l-35,35C87.49,201.55,85.48,187,92.46,180a88.75,88.75,0,0,0-9.66,11.62c-.12,9,3.37,19.82,9.4,31.24L67.09,248c.15,2.34.42,4.66.77,7L95,227.85a204.57,204.57,0,0,0,27.45,36h14Zm-43.26-34.19c12.53,7.08,26.2,17.43,39.39,30.32l-46.4,46.4c-12.89-13.2-23.23-26.86-30.32-39.39Z"/><path class="cls-9" d="M170.61,169.55a11.23,11.23,0,0,0,20.09,9.66,11,11,0,0,0,1.19-2.46l16.59-45.08a11.24,11.24,0,0,0-21.18-7.52Z"/><path class="cls-9" d="M187.34,124.28a11.24,11.24,0,0,0,22.14,3.85l6.75-38.57a11.24,11.24,0,0,0-22.08-4.18Z"/><path class="cls-2" d="M208.93,63.86a2.74,2.74,0,0,0-.34-5.47h0A6.85,6.85,0,0,1,201.34,52a2.74,2.74,0,0,0-5.47.32h0A12.35,12.35,0,0,0,208.93,63.86Z"/><polygon class="cls-2" points="196.97 70.08 198 64.53 199.03 58.98 204.58 60.01 202.51 71.11 196.97 70.08"/><path class="cls-2" d="M213.61,89.05l-3.19,2.2-2.2-3.19L205,90.25l-2.19-3.19-3.19,2.19-2.2-3.19-3.19,2.19-.53-.77,3.69-19.84a11.28,11.28,0,0,1,10.4-9.2h.06a11.28,11.28,0,0,1,12,10.57,11,11,0,0,1-.17,2.75l-3.8,20.45-.06,0Z"/><circle class="cls-2" cx="212.03" cy="36.88" r="2.74"/><circle class="cls-2" cx="217.51" cy="39.61" r="2.74"/><circle class="cls-2" cx="222.99" cy="42.35" r="2.74"/><circle class="cls-2" cx="228.46" cy="45.09" r="2.74"/><path class="cls-9" d="M130.61,169.55a11.23,11.23,0,0,1-20.1,9.66,11.88,11.88,0,0,1-1.19-2.46L92.74,131.67a11.23,11.23,0,1,1,21.17-7.52Z"/><path class="cls-9" d="M113.87,124.28a11.23,11.23,0,1,1-22.13,3.85L85,89.56a11.23,11.23,0,1,1,22.07-4.18Z"/><path class="cls-2" d="M92.29,63.86a2.74,2.74,0,1,1,.33-5.47h0A6.84,6.84,0,0,0,99.87,52a2.74,2.74,0,0,1,5.47.32h0A12.33,12.33,0,0,1,92.29,63.86Z"/><polygon class="cls-2" points="104.25 70.08 103.22 64.53 102.19 58.98 96.64 60.01 98.7 71.11 104.25 70.08"/><path class="cls-2" d="M87.6,89.05l3.2,2.2L93,88.06l3.19,2.19,2.2-3.19,3.19,2.19,2.19-3.19L107,88.25l.54-.77L103.8,67.64a11.3,11.3,0,0,0-10.41-9.2h-.06A11.29,11.29,0,0,0,81.38,69a11.5,11.5,0,0,0,.17,2.75l3.81,20.45,0,0Z"/><circle class="cls-2" cx="89.18" cy="36.88" r="2.74"/><circle class="cls-2" cx="83.71" cy="39.61" r="2.74"/><circle class="cls-2" cx="78.23" cy="42.35" r="2.74"/><circle class="cls-2" cx="72.75" cy="45.09" r="2.74"/><path class="cls-9" d="M112.47,189.28l-1.7-6.8-5-16.66s.69-9.4,19-9.4,20.71,12.47,20.71,12.47l-5.64,19.73-22.7,6.14Z"/><polyline class="cls-9" points="112.47 189.28 135.75 189.28 135.75 156.42 127.53 156.42"/><polygon class="cls-9" points="190.52 156.42 128.9 156.42 128.9 192.02 190.52 192.02 190.52 163.27 190.52 156.42"/><path class="cls-2" d="M133,177V156.42H128.9v21.91a9.53,9.53,0,0,1-18.13,4.15l15.39,61.57h64.36V237.2C136.26,237.2,133,177,133,177Z"/><path class="cls-1" d="M180.93,178.33v-17.8a4.11,4.11,0,0,0-4.11-4.11h-4.1v13.69a17.81,17.81,0,0,1-35.61,0V156.42H133V177s3.25,60.25,57.5,60.25v-49.3A9.58,9.58,0,0,1,180.93,178.33Z"/><path class="cls-10" d="M137.12,170.11a17.8,17.8,0,0,0,35.6,0l1.37-1.37-1.37-1.36,1.37-1.37-1.37-1.37,1.37-1.37-1.37-1.37"/><polygon class="cls-11" points="190.52 244.05 126.17 244.05 121.2 263.9 195.48 263.9 190.52 244.05"/><polygon class="cls-12" points="154.92 244.05 127.53 244.05 122.57 263.9 154.92 263.9 154.92 244.05"/><polyline class="cls-12" points="126.16 249.53 190.52 249.53 190.52 244.05 126.16 244.05"/><polygon class="cls-5" points="126.17 244.05 121.2 263.9 123.94 263.9 128.9 244.05 126.17 244.05"/><polygon class="cls-5" points="190.52 244.05 187.78 244.05 192.74 263.9 195.48 263.9 190.52 244.05"/><path class="cls-13" d="M193.25,226.25a2.74,2.74,0,0,0-2.73-2.74h0v8.22h2.73"/><path class="cls-14" d="M144,182.44A46.53,46.53,0,0,0,190.46,229h.06a2.74,2.74,0,0,0,2.74-2.73h0v15.06a2.74,2.74,0,0,1-2.74,2.74h0a61.58,61.58,0,0,1-61.62-61.54v-26.1H144Z"/><polyline class="cls-3" points="172.72 161.9 154.92 197.5 150.81 189.28 168.61 153.68"/><polyline class="cls-15" points="137.12 161.9 154.92 197.5 159.03 189.28 141.23 153.68"/><circle class="cls-5" cx="154.92" cy="202.97" r="8.22"/><path class="cls-9" d="M152.18,170.11c-10.7,0-20.38-5.23-27.39-13.69h2.74V113.74a2.74,2.74,0,0,1,4.68-1.94l14.49,14.5h13.7l11.75-11.76a2.75,2.75,0,0,1,4.68,1.94v39.94h2.73c-7,8.46-16.68,13.69-27.38,13.69"/><path class="cls-1" d="M161.76,144.1a8.18,8.18,0,0,0-6.84,3.68,8.22,8.22,0,1,0,0,9.07,8.21,8.21,0,1,0,6.84-12.75Z"/><polygon class="cls-16" points="148.07 144.1 154.92 149.57 161.76 144.1 148.07 144.1"/><path class="cls-4" d="M165.87,133.64a2.74,2.74,0,0,0-2.74,2.74h0v2.74a2.74,2.74,0,0,0,5.48,0v-2.74A2.74,2.74,0,0,0,165.87,133.64Z"/><path class="cls-4" d="M141.23,133.64a2.74,2.74,0,0,0-2.74,2.74h0v2.74a2.74,2.74,0,0,0,5.47,0v-2.74A2.74,2.74,0,0,0,141.23,133.64Z"/></g></g></svg>