<?xml version="1.0" encoding="utf-8"?>
<!-- Generator: Adobe Illustrator 24.3.0, SVG Export Plug-In . SVG Version: 6.00 Build 0)  -->
<svg version="1.1" id="Layer_1" xmlns="http://www.w3.org/2000/svg" xmlns:xlink="http://www.w3.org/1999/xlink" x="0px" y="0px"
	 viewBox="0 0 1024 1024" style="enable-background:new 0 0 1024 1024;" xml:space="preserve">
<style type="text/css">
	.st0{fill:#0062B7;}
	.st1{fill:#0097E4;}
</style>
<path class="st0" d="M113.5,294c0-20.4,16.7-37.1,37.1-37.1h700.8V206c0-20.4-16.7-37.1-37.1-37.1H62.6c-20.4,0-37.1,16.7-37.1,37.1
	v465c0,20.4,16.7,37.1,37.1,37.1h50.8V294z"/>
<path class="st1" d="M960.5,855.1H210.6c-20.9,0-38-17.1-38-38V353.8c0-20.9,17.1-38,38-38h749.9c20.9,0,38,17.1,38,38v463.3
	C998.5,838,981.4,855.1,960.5,855.1z"/>
</svg>
